<svg width="41" height="723" viewBox="0 0 41 723" fill="none" xmlns="http://www.w3.org/2000/svg">
<path d="M21.5625 149.181L26.875 144.052" stroke="#477628" stroke-width="2" stroke-linecap="round" stroke-linejoin="round"/>
<path d="M23.3335 144.052H26.8752V147.471" stroke="#477628" stroke-width="2" stroke-linecap="round" stroke-linejoin="round"/>
<path d="M26.875 151.575V154.994C26.875 155.357 26.7257 155.705 26.4601 155.961C26.1944 156.218 25.8341 156.362 25.4583 156.362H15.5417C15.1659 156.362 14.8056 156.218 14.5399 155.961C14.2743 155.705 14.125 155.357 14.125 154.994V145.42C14.125 145.057 14.2743 144.709 14.5399 144.452C14.8056 144.196 15.1659 144.052 15.5417 144.052H19.0833" stroke="#477628" stroke-width="2" stroke-linecap="round" stroke-linejoin="round"/>
<path d="M18.2971 59.8736C17.9065 60.2638 17.2736 60.2636 16.8832 59.8732L14.1246 57.1146C13.7351 56.7251 13.1034 56.7243 12.7125 57.1125C12.3196 57.5026 12.3181 58.1381 12.7096 58.5296L16.8829 62.7029C17.2734 63.0934 17.9066 63.0934 18.2971 62.7029L28.8848 52.1152C29.2743 51.7257 29.2743 51.0943 28.8848 50.7048C28.4955 50.3155 27.8643 50.3154 27.4748 50.7045L18.2971 59.8736Z" fill="#E3483D"/>
<path d="M28 519L12 535" stroke="black" stroke-width="2" stroke-linecap="square" stroke-linejoin="round"/>
<path d="M12 519L28 535" stroke="black" stroke-width="2" stroke-linecap="square" stroke-linejoin="round"/>
<path d="M18 259L23 254L18 249" stroke="#505050" stroke-width="1.5"/>
<path d="M15 573L27 585.5L15 598" stroke="white" stroke-width="5"/>
<path d="M29 634H13V636H29V634Z" fill="white"/>
<path d="M29 684H13V686H29V684Z" fill="white"/>
<path d="M20 677V693H22V677H20Z" fill="white"/>
<path d="M19.4859 14.7669C19.0947 15.1612 18.4571 15.1612 18.0659 14.7669L16.1447 12.83C15.7535 12.4357 15.1159 12.4357 14.7247 12.83L14.6986 12.8564C14.3119 13.2463 14.3119 13.875 14.6986 14.2649L18.0659 17.6595C18.4571 18.0539 19.0947 18.0539 19.4859 17.6595L27.9264 9.15057C28.3131 8.76071 28.3131 8.13194 27.9264 7.74208L27.9003 7.71571C27.5091 7.32137 26.8715 7.32137 26.4803 7.71571L19.4859 14.7669Z" fill="white"/>
<path d="M24.5 98.6562L23.8438 98L20.75 101.094L17.6562 98L17 98.6562L20.0938 101.75L17 104.844L17.6562 105.5L20.75 102.406L23.8438 105.5L24.5 104.844L21.4062 101.75L24.5 98.6562Z" fill="#2C2C2C"/>
<path d="M24.571 318L16 309L24.571 300" stroke="#2C2C2C" stroke-linecap="round" stroke-linejoin="round"/>
<path d="M24.5 361.66L23.84 361L20.75 364.09L17.66 361L17 361.66L20.09 364.75L17 367.84L17.66 368.5L20.75 365.41L23.84 368.5L24.5 367.84L21.41 364.75L24.5 361.66Z" fill="white"/>
<path fill-rule="evenodd" clip-rule="evenodd" d="M22 186C22 185.448 21.5523 185 21 185C20.4477 185 20 185.448 20 186V199H7C6.44772 199 6 199.448 6 200C6 200.552 6.44772 201 7 201H20V214C20 214.552 20.4477 215 21 215C21.5523 215 22 214.552 22 214V201H35C35.5523 201 36 200.552 36 200C36 199.448 35.5523 199 35 199H22V186Z" fill="black"/>
<path fill-rule="evenodd" clip-rule="evenodd" d="M20 482.5C20 482.776 20.2239 483 20.5 483C20.7761 483 21 482.776 21 482.5V474H29.5C29.7761 474 30 473.776 30 473.5C30 473.224 29.7761 473 29.5 473H21V464.5C21 464.224 20.7761 464 20.5 464C20.2239 464 20 464.224 20 464.5V473H11.5C11.2239 473 11 473.224 11 473.5C11 473.776 11.2239 474 11.5 474H20V482.5Z" fill="#2C2C2C"/>
<path d="M12 424H30" stroke="#2C2C2C" stroke-linecap="round" stroke-linejoin="round"/>
</svg>
